# 3ds Max Wavefront OBJ Exporter v0.97b - (c)2007 guruware
# File Created: 14.06.2019 15:31:40

mtllib nivel4.mtl

#
# object Box002
#

v  -2.3049 -1.8313 75.4360
v  -2.3049 -1.8313 61.3510
v  36.8014 -1.8313 61.3510
v  36.8014 -1.8313 75.4360
v  -2.3049 54.1433 75.4360
v  36.8014 54.1433 75.4360
v  36.8014 54.1433 61.3510
v  -2.3049 54.1433 61.3510
# 8 vertices

vn 0.0000 -1.0000 -0.0000
vn 0.0000 1.0000 -0.0000
vn 0.0000 0.0000 1.0000
vn 1.0000 0.0000 -0.0000
vn 0.0000 0.0000 -1.0000
vn -1.0000 0.0000 -0.0000
# 6 vertex normals

vt 1.0000 0.0000 0.0000
vt 1.0000 1.0000 0.0000
vt 0.0000 1.0000 0.0000
vt 0.0000 0.0000 0.0000
# 4 texture coords

o Box002
g Box002
usemtl wire_154215229
s 2
f 1/1/1 2/2/1 3/3/1 
f 3/3/1 4/4/1 1/1/1 
s 4
f 5/4/2 6/1/2 7/2/2 
f 7/2/2 8/3/2 5/4/2 
s 8
f 1/4/3 4/1/3 6/2/3 
f 6/2/3 5/3/3 1/4/3 
s 16
f 4/4/4 3/1/4 7/2/4 
f 7/2/4 6/3/4 4/4/4 
s 32
f 3/4/5 2/1/5 8/2/5 
f 8/2/5 7/3/5 3/4/5 
s 64
f 2/4/6 1/1/6 5/2/6 
f 5/2/6 8/3/6 2/4/6 
# 12 faces

#
# object Box003
#

v  -70.3156 -1.8313 53.9730
v  -70.3156 -1.8313 39.8881
v  -31.2093 -1.8313 39.8881
v  -31.2093 -1.8313 53.9730
v  -70.3156 54.1433 53.9730
v  -31.2093 54.1433 53.9730
v  -31.2093 54.1433 39.8881
v  -70.3156 54.1433 39.8881
# 8 vertices

vn 0.0000 -1.0000 -0.0000
vn 0.0000 1.0000 -0.0000
vn 0.0000 0.0000 1.0000
vn 1.0000 0.0000 -0.0000
vn 0.0000 0.0000 -1.0000
vn -1.0000 0.0000 -0.0000
# 6 vertex normals

vt 1.0000 0.0000 0.0000
vt 1.0000 1.0000 0.0000
vt 0.0000 1.0000 0.0000
vt 0.0000 0.0000 0.0000
# 4 texture coords

o Box003
g Box003
usemtl wire_154215229
s 2
f 9/5/7 10/6/7 11/7/7 
f 11/7/7 12/8/7 9/5/7 
s 4
f 13/8/8 14/5/8 15/6/8 
f 15/6/8 16/7/8 13/8/8 
s 8
f 9/8/9 12/5/9 14/6/9 
f 14/6/9 13/7/9 9/8/9 
s 16
f 12/8/10 11/5/10 15/6/10 
f 15/6/10 14/7/10 12/8/10 
s 32
f 11/8/11 10/5/11 16/6/11 
f 16/6/11 15/7/11 11/8/11 
s 64
f 10/8/12 9/5/12 13/6/12 
f 13/6/12 16/7/12 10/8/12 
# 12 faces

#
# object Box004
#

v  -84.9416 -1.8313 -10.6132
v  -84.9416 -1.8313 -24.6981
v  -45.8353 -1.8313 -24.6981
v  -45.8353 -1.8313 -10.6132
v  -84.9416 54.1433 -10.6132
v  -45.8353 54.1433 -10.6132
v  -45.8353 54.1433 -24.6981
v  -84.9416 54.1433 -24.6981
# 8 vertices

vn 0.0000 -1.0000 -0.0000
vn 0.0000 1.0000 -0.0000
vn 0.0000 0.0000 1.0000
vn 1.0000 0.0000 -0.0000
vn 0.0000 0.0000 -1.0000
vn -1.0000 0.0000 -0.0000
# 6 vertex normals

vt 1.0000 0.0000 0.0000
vt 1.0000 1.0000 0.0000
vt 0.0000 1.0000 0.0000
vt 0.0000 0.0000 0.0000
# 4 texture coords

o Box004
g Box004
usemtl wire_154215229
s 2
f 17/9/13 18/10/13 19/11/13 
f 19/11/13 20/12/13 17/9/13 
s 4
f 21/12/14 22/9/14 23/10/14 
f 23/10/14 24/11/14 21/12/14 
s 8
f 17/12/15 20/9/15 22/10/15 
f 22/10/15 21/11/15 17/12/15 
s 16
f 20/12/16 19/9/16 23/10/16 
f 23/10/16 22/11/16 20/12/16 
s 32
f 19/12/17 18/9/17 24/10/17 
f 24/10/17 23/11/17 19/12/17 
s 64
f 18/12/18 17/9/18 21/10/18 
f 21/10/18 24/11/18 18/12/18 
# 12 faces

#
# object Box005
#

v  -10.6317 -1.8313 -42.7503
v  -10.6317 -1.8313 -56.8353
v  28.4745 -1.8313 -56.8353
v  28.4745 -1.8313 -42.7503
v  -10.6317 54.1433 -42.7503
v  28.4745 54.1433 -42.7503
v  28.4745 54.1433 -56.8353
v  -10.6317 54.1433 -56.8353
# 8 vertices

vn 0.0000 -1.0000 -0.0000
vn 0.0000 1.0000 -0.0000
vn 0.0000 0.0000 1.0000
vn 1.0000 0.0000 -0.0000
vn 0.0000 0.0000 -1.0000
vn -1.0000 0.0000 -0.0000
# 6 vertex normals

vt 1.0000 0.0000 0.0000
vt 1.0000 1.0000 0.0000
vt 0.0000 1.0000 0.0000
vt 0.0000 0.0000 0.0000
# 4 texture coords

o Box005
g Box005
usemtl wire_154215229
s 2
f 25/13/19 26/14/19 27/15/19 
f 27/15/19 28/16/19 25/13/19 
s 4
f 29/16/20 30/13/20 31/14/20 
f 31/14/20 32/15/20 29/16/20 
s 8
f 25/16/21 28/13/21 30/14/21 
f 30/14/21 29/15/21 25/16/21 
s 16
f 28/16/22 27/13/22 31/14/22 
f 31/14/22 30/15/22 28/16/22 
s 32
f 27/16/23 26/13/23 32/14/23 
f 32/14/23 31/15/23 27/16/23 
s 64
f 26/16/24 25/13/24 29/14/24 
f 29/14/24 32/15/24 26/16/24 
# 12 faces

#
# object Box006
#

v  55.8848 -1.8313 15.6547
v  55.8848 -1.8313 1.5698
v  94.9910 -1.8313 1.5698
v  94.9910 -1.8313 15.6547
v  55.8848 54.1433 15.6547
v  94.9910 54.1433 15.6547
v  94.9910 54.1433 1.5698
v  55.8848 54.1433 1.5698
# 8 vertices

vn 0.0000 -1.0000 -0.0000
vn 0.0000 1.0000 -0.0000
vn 0.0000 0.0000 1.0000
vn 1.0000 0.0000 -0.0000
vn 0.0000 0.0000 -1.0000
vn -1.0000 0.0000 -0.0000
# 6 vertex normals

vt 1.0000 0.0000 0.0000
vt 1.0000 1.0000 0.0000
vt 0.0000 1.0000 0.0000
vt 0.0000 0.0000 0.0000
# 4 texture coords

o Box006
g Box006
usemtl wire_154215229
s 2
f 33/17/25 34/18/25 35/19/25 
f 35/19/25 36/20/25 33/17/25 
s 4
f 37/20/26 38/17/26 39/18/26 
f 39/18/26 40/19/26 37/20/26 
s 8
f 33/20/27 36/17/27 38/18/27 
f 38/18/27 37/19/27 33/20/27 
s 16
f 36/20/28 35/17/28 39/18/28 
f 39/18/28 38/19/28 36/20/28 
s 32
f 35/20/29 34/17/29 40/18/29 
f 40/18/29 39/19/29 35/20/29 
s 64
f 34/20/30 33/17/30 37/18/30 
f 37/18/30 40/19/30 34/20/30 
# 12 faces

